<?xml version="1.0" encoding="UTF-8" standalone="no"?>
<!-- Created with Inkscape (http://www.inkscape.org/) -->

<svg
   width="1897.947"
   height="693.83081"
   viewBox="0 0 502.16512 183.57608"
   version="1.1"
   id="svg1"
   sodipodi:docname="white.svg"
   xmlns:inkscape="http://www.inkscape.org/namespaces/inkscape"
   xmlns:sodipodi="http://sodipodi.sourceforge.net/DTD/sodipodi-0.dtd"
   xmlns="http://www.w3.org/2000/svg"
   xmlns:svg="http://www.w3.org/2000/svg">
  <sodipodi:namedview
     id="namedview1"
     pagecolor="#ffffff"
     bordercolor="#000000"
     borderopacity="0.25"
     inkscape:showpageshadow="2"
     inkscape:pageopacity="0.0"
     inkscape:pagecheckerboard="0"
     inkscape:deskcolor="#d1d1d1"
     inkscape:document-units="mm" />
  <defs
     id="defs1" />
  <g
     inkscape:label="Camada 1"
     inkscape:groupmode="layer"
     id="layer1"
     transform="translate(-2.917955,-51.08699)">
    <text
       xml:space="preserve"
       style="font-style:normal;font-variant:normal;font-weight:bold;font-stretch:normal;font-size:125.322px;font-family:'Source Code Pro';-inkscape-font-specification:'Source Code Pro Bold';letter-spacing:-14.5548px;fill:#000000;stroke-width:10.4435"
       x="72.325371"
       y="210.35059"
       id="text1"><tspan
         sodipodi:role="line"
         style="font-style:normal;font-variant:normal;font-weight:bold;font-stretch:normal;font-family:'Source Code Pro';-inkscape-font-specification:'Source Code Pro Bold';letter-spacing:-14.5548px;fill:#000000;stroke-width:10.4435"
         x="72.325371"
         y="210.35059"
         id="tspan2"
         dx="0">Skyport</tspan></text>
    <path
       id="path6"
       d="m 67.607134,51.08699 c -8.378694,49.51504 -15.17393,56.31028 -64.689179,64.68897 49.515249,8.38079 56.310485,15.17603 64.689179,64.69106 C 75.987925,130.95199 82.783161,124.15675 132.2982,115.77596 82.783161,107.39727 75.987925,100.60203 67.607134,51.08699"
       style="fill:#edcc2b;fill-opacity:1;fill-rule:nonzero;stroke:none;stroke-width:0.020973" />
    <path
       id="path7"
       d="M 29.689297,96.424218 C 32.352233,80.69031 34.510769,78.532193 50.243628,75.868628 34.510769,73.207161 32.352233,71.046947 29.689297,55.315137 27.026572,71.046947 24.867826,73.207161 9.1345475,75.868628 24.867826,78.532193 27.026572,80.69031 29.689297,96.424218"
       style="fill:#edcc2b;fill-opacity:1;fill-rule:nonzero;stroke:none;stroke-width:0.020973" />
    <path
       id="path8"
       d="M 91.891713,84.658392 C 93.892533,72.838037 95.515839,71.216828 107.3341,69.216009 95.515839,67.215189 93.892533,65.59398 91.891713,53.773625 89.892991,65.59398 88.269685,67.215189 76.451427,69.216009 c 11.818258,2.000819 13.441564,3.622028 15.440286,15.442383"
       style="fill:#edcc2b;fill-opacity:1;fill-rule:nonzero;stroke:none;stroke-width:0.020973" />
    <path
       id="path9"
       d="M 113.13312,106.7534 C 115.13394,94.93304 116.75724,93.311831 128.5755,91.311012 116.75724,89.310192 115.13394,87.688983 113.13312,75.868628 111.1344,87.688983 109.51109,89.310192 97.692832,91.311012 109.51109,93.311831 111.1344,94.93304 113.13312,106.7534"
       style="fill:#edcc2b;fill-opacity:1;fill-rule:nonzero;stroke:none;stroke-width:0.020973" />
  </g>
</svg>
